<?xml version="1.0" standalone="no"?>
<!DOCTYPE svg PUBLIC "-//W3C//DTD SVG 20010904//EN"
 "http://www.w3.org/TR/2001/REC-SVG-20010904/DTD/svg10.dtd">
<svg version="1.0" xmlns="http://www.w3.org/2000/svg"
 width="4000.000000pt" height="4000.000000pt" viewBox="0 0 4000.000000 4000.000000"
 preserveAspectRatio="xMidYMid meet">
<metadata>
Created by potrace 1.14, written by Peter Selinger 2001-2017
</metadata>
<g transform="translate(0.000000,4000.000000) scale(0.100000,-0.100000)"
fill="#000000" stroke="none">
<path d="M19570 28609 c0 -5 -4 -7 -10 -4 -5 3 -10 2 -10 -4 0 -5 9 -13 20
-16 11 -4 18 -11 14 -16 -3 -5 -10 -7 -15 -4 -5 4 -9 0 -9 -8 0 -8 -9 -26 -20
-40 -11 -14 -20 -31 -20 -37 0 -7 -13 -28 -30 -47 -16 -18 -30 -40 -30 -47 0
-13 -54 -66 -67 -66 -5 0 -17 -13 -28 -29 -10 -16 -23 -27 -27 -25 -5 3 -5 10
-2 16 4 7 2 8 -4 4 -13 -8 19 -73 46 -93 9 -7 13 -13 9 -13 -10 0 43 -82 166
-260 439 -635 980 -1260 1512 -1747 163 -150 247 -233 210 -211 -6 3 -21 0
-35 -8 -15 -8 -19 -13 -10 -14 13 0 13 -2 0 -9 -8 -6 -18 -7 -22 -5 -4 3 -8
-4 -8 -15 0 -11 -4 -23 -10 -26 -5 -3 -10 -1 -10 5 0 7 -16 -2 -35 -19 -20
-17 -40 -31 -45 -31 -5 0 -7 -6 -4 -13 6 -16 -28 -49 -47 -45 -8 2 -13 -3 -11
-9 1 -7 -5 -13 -14 -13 -8 0 -13 -4 -10 -9 5 -8 -15 -30 -43 -46 -9 -5 -12 -4
-7 3 12 20 -5 13 -38 -14 -29 -25 -29 -26 -6 -20 l25 8 -24 -17 c-19 -15 -25
-15 -33 -4 -7 11 -8 9 -6 -6 2 -11 -2 -19 -9 -18 -7 2 -10 -4 -7 -12 4 -8 2
-15 -2 -16 -44 -4 -56 -8 -74 -24 -12 -11 -19 -27 -17 -37 3 -10 1 -16 -4 -12
-5 3 -9 -2 -9 -11 0 -9 -5 -13 -11 -9 -8 4 -8 9 0 17 6 6 11 15 11 21 0 5 -6
1 -14 -9 -13 -18 -23 -11 -157 112 -155 141 -472 459 -609 611 l-84 94 -560
334 c-427 256 -561 332 -570 323 -7 -8 -7 -10 0 -6 6 3 11 0 11 -7 0 -8 -7
-13 -16 -11 -9 1 -15 8 -13 15 1 6 -2 9 -7 6 -11 -7 -9 -32 4 -43 4 -4 5 -2 0
6 -5 10 -4 12 4 7 6 -4 9 -12 5 -17 -3 -5 -9 -7 -14 -4 -15 9 -71 -58 -66 -79
4 -14 2 -16 -7 -7 -16 16 -23 14 -23 -8 0 -11 4 -17 9 -14 5 3 8 0 5 -8 -3 -8
-10 -15 -16 -15 -7 -1 -17 -2 -23 -3 -6 0 -9 -8 -5 -16 3 -9 0 -15 -10 -15
-23 0 -50 -31 -65 -73 -9 -24 -18 -36 -27 -32 -9 3 -12 -1 -7 -15 5 -17 2 -19
-25 -16 -29 3 -23 -5 77 -102 273 -265 681 -629 1051 -939 l203 -169 89 -18
88 -18 88 -212 c272 -658 591 -1282 914 -1791 382 -602 814 -1151 1288 -1637
68 -70 121 -131 118 -137 -4 -7 -1 -8 8 -5 11 4 16 0 16 -11 0 -9 -4 -14 -9
-11 -5 4 -12 0 -14 -6 -4 -10 -8 -9 -17 2 -9 12 -10 11 -6 -6 5 -16 -10 -36
-66 -92 -39 -40 -66 -72 -59 -72 6 0 -6 -18 -28 -40 -22 -22 -44 -40 -49 -40
-5 0 -15 -6 -21 -14 -10 -11 -8 -15 6 -18 15 -3 13 -7 -12 -31 -16 -15 -38
-27 -49 -27 -18 0 -18 1 -2 19 16 17 16 19 -2 23 -16 4 -18 1 -14 -15 4 -17 1
-19 -16 -15 -13 4 -23 0 -26 -8 -3 -8 -12 -14 -21 -14 -8 0 -15 -9 -15 -20 0
-14 -7 -20 -23 -20 -13 0 -28 -5 -35 -12 -8 -8 -15 -8 -26 1 -9 7 -16 8 -20 2
-4 -5 2 -12 11 -15 26 -8 46 -43 30 -52 -6 -4 -9 -4 -6 0 4 4 -30 44 -75 89
-266 269 -614 713 -944 1207 -91 135 -169 248 -176 252 -6 4 -7 8 -3 8 4 0 3
9 -3 20 -10 18 -13 19 -26 5 -17 -17 -28 -20 -19 -5 3 6 -1 7 -9 4 -9 -3 -14
-10 -11 -15 5 -7 -35 -36 -42 -31 -11 8 -13 -1 -3 -13 10 -12 10 -15 0 -15 -7
0 -10 -6 -7 -13 3 -9 -6 -13 -29 -14 -23 -1 -32 3 -27 10 3 7 3 9 -2 5 -4 -4
-13 -18 -19 -30 -8 -16 -21 -23 -40 -23 -15 -1 -33 -8 -40 -16 -6 -9 -17 -14
-25 -11 -8 3 -11 0 -7 -7 4 -6 1 -13 -6 -15 -49 -15 -50 -16 -39 -30 10 -11 8
-16 -9 -21 -16 -5 -19 -10 -11 -18 29 -29 4 -36 -26 -8 -24 22 -33 18 -33 -16
0 -19 -5 -23 -29 -23 -15 0 -44 -11 -64 -24 -19 -13 -45 -27 -56 -31 -17 -5
-20 -10 -11 -20 9 -10 6 -15 -10 -20 -16 -5 -19 -10 -11 -18 29 -29 4 -36 -26
-8 -24 22 -33 18 -33 -16 0 -19 -5 -23 -29 -23 -15 0 -45 -11 -65 -25 -20 -14
-43 -25 -50 -25 -20 0 -27 -12 -16 -25 8 -9 0 -18 -31 -33 l-42 -21 -65 117
c-66 120 -211 410 -339 677 -155 323 -282 636 -393 964 -42 126 -82 228 -90
232 -8 4 -80 29 -160 55 -545 175 -1148 458 -1776 835 -83 50 -104 57 -104 38
0 -5 -4 -7 -10 -4 -9 6 -14 -20 -11 -55 1 -12 0 -12 -7 -2 -11 17 -34 -8 -32
-35 4 -31 0 -44 -10 -38 -13 8 -43 -41 -34 -56 4 -8 3 -9 -4 -5 -8 5 -12 0
-12 -13 0 -14 -5 -19 -16 -14 -10 4 -15 1 -13 -8 6 -28 -11 -71 -26 -65 -8 3
-15 1 -15 -3 0 -5 -3 -18 -6 -28 -5 -15 -4 -15 5 -3 6 9 11 10 11 3 0 -6 -7
-18 -15 -27 -8 -8 -15 -20 -15 -26 0 -6 -4 -9 -9 -6 -12 8 -41 -38 -41 -66 0
-17 -3 -19 -9 -9 -7 11 -11 10 -20 -7 -6 -11 -11 -32 -11 -47 0 -15 -4 -24
-10 -20 -5 3 -10 -3 -10 -14 0 -11 -5 -23 -12 -27 -7 -5 -8 -3 -3 6 5 8 4 11
-2 7 -6 -4 -8 -17 -6 -31 3 -13 -1 -27 -7 -31 -9 -5 -10 -1 -5 16 6 21 4 20
-14 -6 -12 -16 -19 -36 -16 -43 3 -8 -2 -23 -11 -35 l-16 -22 7 25 c4 18 -1
14 -19 -15 -14 -22 -29 -46 -33 -52 -18 -29 -841 156 -1256 281 l-112 34 -340
6 c-187 3 -635 8 -995 11 -360 3 -829 8 -1042 11 l-386 7 -5 -29 -4 -29 -2 28
c0 18 -7 27 -17 27 -14 0 -16 -7 -11 -40 3 -22 1 -40 -4 -40 -5 0 -9 -12 -8
-27 1 -28 1 -28 16 7 13 31 16 32 25 16 6 -10 14 -57 18 -105 4 -47 15 -109
24 -137 14 -44 14 -59 2 -123 -18 -94 -8 -137 37 -156 25 -10 35 -11 46 -2 11
9 13 9 8 0 -9 -14 39 -29 288 -93 1092 -280 2263 -436 3310 -441 132 -1 232
-3 223 -6 -17 -4 -24 -33 -19 -73 4 -36 -12 -260 -18 -260 -5 0 -13 10 -19 23
-11 19 -11 18 -6 -13 9 -54 11 -76 7 -62 -9 26 -23 10 -23 -28 0 -22 -4 -40
-9 -40 -4 0 -11 -30 -15 -67 -4 -38 -9 -83 -13 -102 -4 -24 -2 -32 6 -27 13 8
15 -46 4 -144 -5 -52 -10 -64 -27 -68 -19 -5 -19 -6 0 -13 16 -7 17 -8 2 -8
-20 -1 -25 -21 -5 -21 6 0 3 -6 -7 -12 -22 -12 -448 -6 -741 12 -194 11 -562
45 -711 65 -70 9 -117 10 -150 3 -27 -5 -402 -74 -834 -154 -432 -80 -796
-147 -810 -150 -30 -6 -49 -23 -24 -21 18 2 19 -7 15 -152 -2 -101 0 -155 7
-160 7 -4 8 -21 0 -54 -7 -33 -6 -55 1 -75 l11 -27 -5 28 c-3 15 -1 27 5 27 6
0 9 -29 8 -77 -2 -54 1 -77 10 -80 6 -3 12 -10 12 -16 0 -8 -4 -7 -12 1 -22
22 -31 7 -18 -28 1 -3 2 -8 1 -12 -1 -11 11 -10 29 2 9 6 17 5 21 -1 12 -20
637 -31 1424 -25 429 3 816 8 860 12 44 3 76 1 70 -3 -11 -9 -12 -18 -21 -160
-4 -51 -10 -93 -15 -93 -5 0 -9 -36 -9 -79 0 -53 -4 -81 -12 -83 -8 -3 -12
-39 -11 -121 0 -64 -3 -117 -7 -117 -12 0 -30 -101 -30 -171 0 -39 -4 -69 -10
-69 -6 0 -9 -33 -8 -82 1 -71 2 -77 8 -38 l7 45 1 -41 2 -41 53 4 c28 3 153
16 276 29 124 13 226 22 228 21 3 -4 -88 -43 -1087 -467 -751 -319 -1207 -513
-1420 -605 -118 -50 -145 -66 -143 -81 1 -18 1 -18 -13 0 -14 19 -15 19 -18
-5 0 -7 -10 -15 -20 -19 -17 -6 -18 -7 -3 -13 9 -3 17 -11 17 -16 0 -6 14 -33
30 -62 17 -28 28 -54 25 -57 -3 -3 1 -12 8 -21 8 -9 19 -32 27 -51 22 -62 40
-98 49 -102 5 -2 11 -12 13 -23 7 -44 38 -56 75 -30 12 8 23 11 25 6 7 -22
981 168 1611 314 87 20 161 34 164 31 4 -3 1 -6 -5 -6 -14 0 5 -40 26 -53 6
-4 12 -14 12 -21 0 -8 7 -16 15 -20 8 -3 15 -15 15 -26 0 -12 4 -19 9 -16 5 4
7 -2 4 -13 -3 -10 0 -22 6 -25 6 -4 11 -2 11 4 0 17 17 3 23 -20 3 -13 1 -18
-6 -13 -7 4 -8 0 -4 -11 4 -10 7 -20 7 -22 0 -2 7 -4 15 -4 8 0 18 -12 21 -27
10 -40 54 -114 65 -107 5 3 9 -4 9 -16 0 -12 5 -18 10 -15 6 4 10 -5 10 -20 0
-15 5 -36 11 -47 9 -17 13 -18 20 -7 6 10 9 5 10 -16 1 -16 1 -33 1 -36 -1 -4
6 -6 16 -5 12 1 17 -7 18 -24 0 -14 6 -24 13 -22 6 1 11 -3 10 -10 -2 -21 12
-58 23 -58 5 0 7 10 3 23 -3 12 3 4 15 -17 11 -23 17 -48 14 -59 -5 -16 -3
-19 10 -14 11 5 16 1 16 -14 0 -11 4 -18 8 -15 5 3 7 -9 4 -27 -2 -21 0 -28 6
-19 6 9 11 6 20 -13 6 -14 16 -25 23 -25 6 0 9 -8 7 -17 -5 -19 25 -87 42 -98
6 -4 8 -10 5 -15 -3 -4 3 -7 13 -6 10 0 17 -6 16 -15 -1 -12 5 -15 20 -11 11
3 26 9 32 13 6 5 13 6 16 3 17 -16 704 180 1078 307 112 38 200 65 195 60 -6
-5 -345 -245 -755 -533 -1373 -965 -1539 -1083 -1540 -1091 0 -5 5 -5 12 -1 7
4 8 3 4 -5 -4 -6 -11 -9 -16 -6 -5 3 -19 1 -29 -5 -23 -12 -18 -40 6 -40 12 0
13 3 4 14 -8 10 -9 16 -1 21 5 3 10 5 11 3 0 -2 2 -13 5 -26 2 -13 11 -36 19
-52 8 -16 12 -37 8 -46 -5 -13 -3 -15 7 -9 7 5 30 10 49 11 85 6 443 93 740
179 154 44 589 187 681 222 22 9 29 5 66 -33 22 -24 46 -44 52 -44 6 0 9 -6 6
-13 -3 -8 20 -40 50 -73 31 -32 56 -62 56 -66 0 -6 39 -50 104 -118 13 -14 27
-35 31 -47 3 -13 10 -23 16 -23 5 0 21 -19 35 -41 19 -31 28 -38 34 -29 7 11
12 11 23 2 7 -7 16 -10 19 -7 2 3 5 -2 5 -10 0 -13 -3 -13 -19 2 -16 14 -18
14 -18 1 0 -38 24 -36 210 17 736 212 1456 544 2240 1034 l85 54 -80 -84
c-120 -125 -644 -666 -1039 -1071 -191 -197 -345 -358 -342 -358 34 0 651 340
1006 555 80 48 156 88 170 89 14 1 30 5 37 9 8 5 10 0 7 -18 -4 -22 1 -28 32
-41 20 -8 41 -19 48 -25 49 -41 103 -79 112 -79 7 0 26 -13 44 -30 18 -16 38
-30 45 -30 6 0 24 -11 39 -25 15 -14 31 -25 36 -25 5 0 21 -10 37 -22 15 -13
38 -29 51 -35 12 -7 32 -19 45 -25 12 -7 25 -16 28 -21 8 -11 342 157 504 253
317 189 515 330 945 675 l25 20 -21 -30 c-652 -935 -804 -1155 -804 -1160 0
-8 127 78 285 193 226 165 595 468 788 649 37 35 46 40 44 24 -2 -11 -10 -28
-19 -38 -8 -10 -13 -24 -11 -30 3 -7 -1 -13 -7 -13 -8 0 -11 -14 -8 -40 2 -22
0 -40 -4 -40 -5 0 -8 -7 -8 -15 0 -8 -4 -15 -8 -15 -5 0 -14 -31 -21 -70 -7
-38 -16 -70 -21 -70 -8 0 -24 -57 -21 -78 1 -8 -4 -24 -13 -36 -8 -13 -16 -36
-19 -52 -3 -16 -14 -53 -25 -81 -11 -29 -17 -51 -13 -48 4 2 8 -2 8 -10 0 -8
-4 -12 -8 -10 -6 4 -19 -17 -19 -31 0 -2 53 23 119 55 125 63 256 140 377 222
40 27 75 49 77 49 2 0 -20 -66 -51 -147 -236 -635 -444 -1334 -597 -2011 l-44
-194 -88 -151 c-48 -84 -274 -474 -503 -867 -229 -393 -481 -827 -560 -963
l-143 -249 35 -31 c46 -42 117 -104 169 -147 23 -19 58 -51 78 -71 20 -20 44
-39 54 -42 10 -4 25 -20 35 -37 9 -16 23 -30 31 -30 13 0 22 -7 86 -68 27 -26
66 -52 78 -52 3 0 35 123 72 273 37 149 72 277 78 282 7 7 8 6 3 -2 -5 -8 10
-23 41 -43 26 -16 59 -39 73 -50 23 -19 42 -32 105 -72 11 -7 33 -23 48 -35
16 -13 32 -23 37 -23 5 0 24 -14 42 -30 18 -16 36 -30 40 -30 5 0 23 -15 42
-34 18 -19 47 -43 63 -53 17 -10 54 -35 84 -55 30 -21 57 -38 62 -38 4 0 7
164 5 365 -2 201 -2 365 -1 365 1 0 17 -15 35 -33 18 -18 42 -39 53 -47 12 -8
31 -30 44 -47 12 -18 27 -33 33 -33 6 0 47 -35 90 -77 142 -139 153 -149 186
-172 18 -12 30 -26 27 -30 -2 -5 18 -23 45 -40 28 -18 48 -37 45 -42 -4 -5 0
-9 7 -9 7 0 29 -18 48 -40 19 -23 53 -53 75 -68 22 -15 53 -41 69 -59 16 -18
35 -33 43 -33 8 0 11 -5 8 -10 -3 -6 5 -14 19 -20 14 -5 26 -16 26 -25 0 -8 7
-15 15 -15 8 0 15 -8 15 -17 0 -11 3 -13 9 -8 6 6 -28 162 -88 405 -126 508
-148 603 -144 616 5 16 53 5 53 -12 0 -7 6 -11 13 -8 7 2 40 -7 73 -22 144
-64 389 -164 403 -164 8 0 24 -8 35 -18 12 -10 47 -26 78 -36 32 -11 55 -23
52 -27 -3 -5 3 -6 12 -2 13 5 15 3 9 -8 -6 -10 -5 -11 4 -3 8 8 -48 130 -220
478 -219 444 -251 515 -228 500 5 -3 16 -1 24 6 10 8 15 8 21 -1 5 -8 3 -10
-7 -4 -8 5 -10 4 -6 0 13 -15 35 -14 41 2 3 8 1 11 -4 8 -6 -3 -10 -4 -10 -1
0 3 8 10 19 15 16 9 18 7 15 -17 -2 -15 -1 -19 2 -9 3 9 7 17 9 17 1 0 85 12
186 26 101 14 211 28 244 30 33 3 71 9 85 14 14 5 86 16 160 26 77 9 146 23
160 32 22 14 24 14 12 0 -11 -13 -8 -15 15 -15 16 0 23 2 16 4 -7 2 -9 11 -6
19 3 8 -1 14 -8 14 -7 0 -10 3 -7 6 7 6 -59 159 -122 284 -22 44 -40 84 -40
89 0 5 96 71 213 147 324 210 853 563 1037 693 812 568 1367 1046 1846 1586
424 480 790 1067 1009 1620 95 240 205 603 245 812 l12 62 77 7 c98 9 380 -2
546 -21 738 -86 1346 -357 1814 -810 57 -55 101 -91 98 -80 -3 11 -16 70 -27
130 -87 439 -261 839 -440 1009 l-61 59 30 96 c76 237 95 380 88 636 -6 213
-23 314 -83 487 -71 205 -168 384 -310 569 -80 105 -104 125 -121 108 -8 -8
-13 -7 -18 0 -3 6 -1 10 6 9 6 -2 13 2 16 8 2 6 -2 11 -9 12 -15 1 -384 16
-943 37 -214 8 -484 22 -600 31 -115 9 -220 16 -233 17 -14 1 -20 7 -17 15 3
7 0 10 -5 7 -6 -3 -10 -2 -10 4 0 6 -8 7 -17 4 -15 -6 -15 -7 3 -14 23 -9 21
-10 -28 -14 -25 -3 -38 0 -38 8 0 7 -4 6 -10 -3 -8 -13 -10 -12 -10 5 0 15 -3
16 -12 7 -16 -16 -33 -15 -19 1 8 10 7 14 -4 14 -8 0 -12 -4 -9 -8 2 -4 -1
-11 -7 -15 -6 -3 -15 0 -20 7 -6 10 -9 11 -9 2 0 -8 -13 -13 -32 -13 -25 0
-29 3 -18 10 13 9 13 10 0 10 -9 0 -20 -4 -25 -9 -6 -6 -38 -6 -85 0 -41 5
-121 10 -177 11 -58 1 -103 6 -103 11 0 6 -23 7 -56 4 -30 -3 -151 1 -267 10
-117 8 -221 15 -232 15 -34 0 -1134 65 -1175 69 -8 1 -21 7 -29 13 -11 8 -13
8 -7 -1 4 -8 2 -13 -7 -13 -21 0 -209 -164 -386 -338 -85 -83 -156 -150 -157
-149 -5 5 -53 367 -60 450 -6 77 -10 90 -28 97 -17 7 -18 9 -3 9 9 1 17 8 17
16 0 11 -5 12 -24 6 -39 -15 -306 -26 -306 -12 0 8 37 11 120 11 73 0 120 4
120 10 0 6 18 10 40 10 22 0 40 4 40 8 0 4 -39 4 -87 -1 -49 -4 -103 -7 -120
-5 -18 2 -33 1 -33 -3 0 -3 -55 -6 -122 -5 -92 1 -122 4 -120 14 3 19 -16 14
-21 -5 -7 -25 -8 4 -11 197 -3 204 9 473 29 690 16 168 61 515 72 560 6 23 5
24 -13 10 -18 -14 -18 -14 -1 6 16 20 16 22 2 28 -9 3 -25 6 -36 6 -10 0 -19
5 -19 10 0 14 -152 9 -162 -5 -5 -6 -8 -6 -8 1 0 7 -16 15 -35 18 -19 4 -35
11 -35 16 0 6 -26 10 -57 10 -103 0 -263 22 -263 37 0 10 -21 13 -85 13 -69 0
-85 3 -85 15 0 59 177 704 265 963 66 195 142 399 155 417 13 17 70 156 70
170 0 7 -29 62 -65 121 -190 317 -380 744 -540 1216 -42 123 -80 227 -86 233
-7 7 -15 4 -23 -7 -7 -10 -21 -18 -30 -18 -10 0 -14 -5 -10 -11 5 -8 -1 -10
-18 -6 -15 4 -32 1 -44 -8 -10 -8 -36 -15 -56 -15 -20 0 -40 -4 -43 -10 -3 -5
-15 -10 -26 -10 -10 0 -19 -7 -19 -15 0 -11 -12 -15 -44 -15 -50 0 -78 -8 -71
-20 3 -5 -4 -6 -16 -3 -12 3 -25 0 -29 -7 -9 -14 -87 -33 -141 -34 -21 -1 -36
-6 -36 -13 0 -7 5 -9 10 -6 6 3 7 1 4 -4 -15 -24 -65 3 -110 59 -132 162 -341
456 -493 694 l-75 118 -428 385 c-1166 1051 -1110 1002 -1135 996 -12 -3 -15
-2 -8 1 6 3 10 10 6 15 -7 12 -24 11 -24 -2z m1725 -2666 c-2 -10 -4 -19 -4
-21 -1 -2 -6 0 -11 3 -8 5 -7 11 1 21 15 18 18 18 14 -3z m-125 -77 c0 -2 -8
-10 -17 -17 -16 -13 -17 -12 -4 4 13 16 21 21 21 13z m-4630 -1460 c0 -3 -4
-8 -10 -11 -5 -3 -10 -1 -10 4 0 6 5 11 10 11 6 0 10 -2 10 -4z m-50 -86 c0
-5 -5 -10 -11 -10 -5 0 -7 5 -4 10 3 6 8 10 11 10 2 0 4 -4 4 -10z m6547 -986
c-3 -3 -12 -4 -19 -1 -8 3 -5 6 6 6 11 1 17 -2 13 -5z m80 -10 c-3 -3 -12 -4
-19 -1 -8 3 -5 6 6 6 11 1 17 -2 13 -5z m245 -39 c0 -5 -5 -10 -11 -11 -8 -2
-7 -1 0 3 8 4 7 8 -2 15 -11 8 -11 9 -1 6 8 -2 14 -8 14 -13z m-7082 -15 c0
-5 -4 -10 -10 -10 -5 0 -10 5 -10 10 0 6 5 10 10 10 6 0 10 -4 10 -10z m-83
-222 c-3 -7 -5 -2 -5 12 0 14 2 19 5 13 2 -7 2 -19 0 -25z m-17 -128 c0 -22
-4 -40 -10 -40 -5 0 -10 18 -10 40 0 22 5 40 10 40 6 0 10 -18 10 -40z m4147
-516 c-3 -3 -12 -4 -19 -1 -8 3 -5 6 6 6 11 1 17 -2 13 -5z m-240 -160 c-3 -3
-12 -4 -19 -1 -8 3 -5 6 6 6 11 1 17 -2 13 -5z m-7179 -210 l-3 -39 -5 47 c-3
26 -1 43 3 39 5 -5 7 -26 5 -47z m10595 -241 c-13 -2 -33 -2 -45 0 -13 2 -3 4
22 4 25 0 35 -2 23 -4z m-1034 -228 c0 -5 -5 -1 -11 9 -11 19 -11 19 -24 1
-15 -20 -17 -13 -7 24 l6 24 18 -24 c10 -13 19 -28 18 -34z m-90 -34 c9 -16 8
-18 -9 -14 -21 5 -25 15 -13 26 9 10 11 9 22 -12z m-79 -105 c0 -2 -8 -10 -17
-17 -16 -13 -17 -12 -4 4 13 16 21 21 21 13z m-60 -51 c0 -8 -7 -15 -15 -15
-7 0 -19 -8 -24 -17 -6 -10 -11 -14 -11 -9 0 9 39 56 47 56 2 0 3 -7 3 -15z
m-6983 -77 c-2 -13 -4 -3 -4 22 0 25 2 35 4 23 2 -13 2 -33 0 -45z m6823 -49
c0 -11 -4 -17 -10 -14 -5 3 -19 1 -31 -6 -17 -9 -20 -8 -14 3 25 43 55 53 55
17z m-89 -66 c13 -16 12 -17 -4 -4 -15 12 -17 11 -14 -5 1 -11 7 -26 12 -34 8
-13 7 -13 -8 -1 -10 8 -15 16 -12 19 2 3 -3 11 -13 19 -9 8 -12 12 -5 9 6 -4
14 -2 18 4 8 13 10 13 26 -7z m-6713 -2034 c-3 -8 -7 -3 -11 10 -4 17 -3 21 5
13 5 -5 8 -16 6 -23z m-2023 11 c3 -6 -1 -7 -9 -4 -18 7 -21 14 -7 14 6 0 13
-4 16 -10z m2380 -610 c3 -5 2 -10 -4 -10 -5 0 -13 5 -16 10 -3 6 -2 10 4 10
5 0 13 -4 16 -10z"/>
<path d="M12300 24060 c0 -5 7 -10 16 -10 8 0 12 5 9 10 -3 6 -10 10 -16 10
-5 0 -9 -4 -9 -10z"/>
<path d="M16215 23285 c-4 -42 -5 -79 -2 -81 2 -3 8 29 12 71 4 42 5 79 2 81
-2 3 -8 -29 -12 -71z"/>
<path d="M16131 22794 c1 -16 5 -40 9 -54 6 -17 7 -9 3 25 -6 56 -14 74 -12
29z"/>
<path d="M16123 22680 c0 -25 2 -35 4 -22 2 12 2 32 0 45 -2 12 -4 2 -4 -23z"/>
<path d="M12845 21990 c3 -5 8 -10 11 -10 2 0 4 5 4 10 0 6 -5 10 -11 10 -5 0
-7 -4 -4 -10z"/>
<path d="M23368 21843 c7 -3 16 -2 19 1 4 3 -2 6 -13 5 -11 0 -14 -3 -6 -6z"/>
<path d="M24547 21733 c6 -15 4 -16 -9 -5 -11 9 -18 10 -23 2 -3 -6 -11 -8
-16 -5 -5 4 -9 2 -9 -3 0 -5 16 -9 35 -9 34 0 48 18 25 32 -6 4 -7 -1 -3 -12z"/>
<path d="M24738 21713 c12 -2 32 -2 45 0 12 2 2 4 -23 4 -25 0 -35 -2 -22 -4z"/>
<path d="M25368 21663 c6 -2 18 -2 25 0 6 3 1 5 -13 5 -14 0 -19 -2 -12 -5z"/>
<path d="M25528 21653 c7 -3 16 -2 19 1 4 3 -2 6 -13 5 -11 0 -14 -3 -6 -6z"/>
<path d="M25738 21653 c7 -3 16 -2 19 1 4 3 -2 6 -13 5 -11 0 -14 -3 -6 -6z"/>
<path d="M25858 21653 c12 -2 32 -2 45 0 12 2 2 4 -23 4 -25 0 -35 -2 -22 -4z"/>
<path d="M26080 21620 c0 -5 18 -10 40 -10 22 0 40 5 40 10 0 6 -18 10 -40 10
-22 0 -40 -4 -40 -10z"/>
<path d="M26772 21596 c2 -1 10 -7 19 -14 13 -10 18 -10 22 0 3 8 -5 14 -20
14 -13 1 -23 1 -21 0z"/>
<path d="M26923 21583 c9 -2 23 -2 30 0 6 3 -1 5 -18 5 -16 0 -22 -2 -12 -5z"/>
<path d="M21975 21240 c-3 -5 -1 -10 4 -10 6 0 11 5 11 10 0 6 -2 10 -4 10 -3
0 -8 -4 -11 -10z"/>
<path d="M13014 19488 c-5 -7 -3 -8 6 -3 10 6 12 4 7 -9 -4 -10 -3 -15 3 -11
13 8 13 35 1 35 -6 0 -13 -5 -17 -12z"/>
<path d="M18916 17238 c3 -5 10 -6 15 -3 13 9 11 12 -6 12 -8 0 -12 -4 -9 -9z"/>
</g>
</svg>
